<svg width="30" height="25" fill="none" xmlns="http://www.w3.org/2000/svg"><path d="M25.384 2.078A22.785 22.785 0 0019.284 0a.119.119 0 00-.055.011.13.13 0 00-.045.036 22.192 22.192 0 00-.758 1.703 21.046 21.046 0 00-6.857 0c-.2-.532-.5-1.188-.771-1.703-.015-.031-.057-.047-.1-.047a22.956 22.956 0 00-6.1 2.078c-.015 0-.03.015-.043.03C.669 8.468-.403 14.653.126 20.777c0 .031.014.062.043.078 2.571 2.062 5.043 3.312 7.486 4.14.043.015.085 0 .1-.032a20.545 20.545 0 001.528-2.718c.029-.062 0-.125-.057-.14a16.961 16.961 0 01-2.343-1.219c-.057-.031-.057-.125-.014-.172.157-.125.314-.265.471-.39a.082.082 0 01.1-.016c4.915 2.453 10.215 2.453 15.072 0a.082.082 0 01.1.016c.157.14.315.265.472.406.057.047.057.14-.015.172-.742.484-1.528.875-2.342 1.218-.058.016-.072.094-.058.14.457.954.972 1.86 1.529 2.719.043.015.086.031.129.015 2.457-.827 4.928-2.077 7.5-4.139a.087.087 0 00.043-.078c.628-7.076-1.043-13.215-4.43-18.667-.013-.016-.028-.031-.056-.031zM10.026 17.043c-1.471 0-2.7-1.484-2.7-3.312 0-1.828 1.2-3.312 2.7-3.312 1.515 0 2.715 1.5 2.7 3.312 0 1.828-1.2 3.312-2.7 3.312zm9.958 0c-1.472 0-2.7-1.484-2.7-3.312 0-1.828 1.2-3.312 2.7-3.312 1.514 0 2.714 1.5 2.7 3.312 0 1.828-1.186 3.312-2.7 3.312z" fill="#fff"/></svg>