<svg width="25" height="25" fill="none" xmlns="http://www.w3.org/2000/svg"><path d="M12.497 8.332A4.177 4.177 0 008.328 12.5a4.177 4.177 0 004.169 4.168 4.177 4.177 0 004.168-4.168 4.177 4.177 0 00-4.168-4.168zM24.999 12.5c0-1.726.015-3.437-.082-5.16-.097-2.001-.553-3.777-2.017-5.24C21.434.632 19.66.18 17.66.081c-1.728-.096-3.438-.08-5.16-.08-1.726 0-3.437-.016-5.16.081C5.34.18 3.563.636 2.1 2.1.632 3.566.18 5.34.081 7.34c-.096 1.726-.08 3.437-.08 5.16 0 1.723-.016 3.437.081 5.16.098 2 .554 3.777 2.018 5.24 1.467 1.467 3.24 1.92 5.241 2.018 1.726.097 3.437.081 5.16.081 1.726 0 3.436.016 5.16-.081 2-.097 3.777-.554 5.24-2.017 1.467-1.467 1.92-3.24 2.017-5.241.1-1.723.082-3.434.082-5.16zm-12.502 6.414A6.405 6.405 0 016.083 12.5a6.405 6.405 0 016.414-6.414A6.405 6.405 0 0118.91 12.5a6.405 6.405 0 01-6.413 6.414zM19.173 7.32a1.496 1.496 0 01-1.498-1.497c0-.83.67-1.498 1.498-1.498a1.496 1.496 0 011.384 2.071 1.495 1.495 0 01-1.384.925z" fill="#fff"/></svg>