<svg width="82" height="37" fill="none" xmlns="http://www.w3.org/2000/svg"><path d="M70.548 15.682l-.105 17.214 8.75.037c.087 0 .174.007.259.025.893.188 1.557.903 1.64 1.72.106 1.025-.72 2.055-1.897 2.178a1.17 1.17 0 01-.123.006l-10.885.054a1.384 1.384 0 01-.556-.113 2.36 2.36 0 01-.795-.558c-.638-.686-.639-1.526-.634-1.716l.22-18.77c.003-.216.055-.43.155-.621.442-.848 1.338-1.342 2.219-1.229.644.083 1.216.483 1.56 1.06.13.216.194.463.192.713zm-7.135 7.053c-.258-1.375-.809-4.311-3.401-6.592-.573-.504-2.391-1.955-5.006-2.365-.167-.026-.408-.06-1.269-.112a66.706 66.706 0 00-5.86-.093 1.592 1.592 0 00-.746.354c-.233.206-.526.606-.578 1.475-.07 1.164-.056 8.963.066 19.593.04.272.155.774.55 1.176.433.44.992.546 1.38.597 4.742.614 7.595-.504 7.595-.504 1.192-.467 3.727-1.5 5.59-4.152 2.712-3.864 1.902-8.183 1.679-9.377zm-4.703 2.897c-.067 1.082-.224 3.58-2.309 5.374-2.27 1.955-5.088 1.58-5.542 1.512l.042-14.57a9.529 9.529 0 011.973.127c.789.134 2.633.446 3.989 1.68 2.096 1.905 1.903 4.986 1.847 5.877zm-16.374-7.179c-.64-1.197-1.426-2.62-3.107-3.611-1.494-.88-2.944-.976-3.527-1.008a8.439 8.439 0 00-3.946.756c-2.637 1.224-3.81 3.526-4.325 4.535-1.788 3.507-1.224 6.906-1.008 8.103.338 1.869 1.143 6.325 5.039 8.313 3.45 1.76 6.948.373 7.137.294 2.236-.93 3.402-2.595 3.779-3.15 1.445-2.124 1.52-4.24 1.595-6.34.052-1.432.126-4.598-1.637-7.892zm-2.855 9.614c-.347 1.289-.678 2.52-1.847 3.443-.24.19-1.623 1.281-3.36.924-1.464-.302-2.26-1.444-2.686-2.057-.788-1.132-.952-2.23-1.134-3.443-.208-1.39-.13-2.58 0-3.443.203-1.36.377-2.526 1.26-3.653.37-.472 1.224-1.564 2.729-1.805 1.538-.247 2.736.56 3.107.84 1.23.928 1.554 2.244 1.93 3.778.678 2.753.133 4.925 0 5.416zm-15.52-12.634l-.056 18.775c0 .051-.003.102-.01.154a2.219 2.219 0 01-2.248 1.892 2.213 2.213 0 01-2.101-1.857 1.108 1.108 0 01-.012-.168l-.029-7.679-7.495-.057-.171 7.594a1.221 1.221 0 01-.033.255c-.262 1.093-1.31 1.83-2.401 1.712a2.234 2.234 0 01-1.964-2.026 1.234 1.234 0 01-.003-.114l.15-13.58.007-.54.012-1.129c.003 0 .004-.002.007-.003a40.054 40.054 0 014.313-2.132l.004-.002.008.931.004.535.037 4.646h7.612l.082-7.06.001-.124a1.245 1.245 0 01.256-.744 2.424 2.424 0 011.826-.918l.064-.001c.115 0 .23.007.343.022l.037.005a2.43 2.43 0 011.453.79c.201.227.308.521.307.823zm-6.498-4.997c.938.4 2.073.51 3.112.264a3.94 3.94 0 00.856-.305c-.934-.347-1.678-1.208-1.274-2.402a.515.515 0 01.474-.348s-.868-1.003-1.237-1.444l-.004-.138.436-.461-.515-.485.285-.303-.41-.386-.387.41.302.285-.485.514.462.435.004.124-1.15 1.528a.515.515 0 01.494.32c.445 1.095-.137 1.958-.963 2.392zm-6.496 1.534a5.112 5.112 0 01-2.664 1.63c-.312.074-.614.11-.902.11.68-.728.96-1.83.064-2.717a.515.515 0 00-.58-.1s.328-1.285.46-1.844l-.059-.125-.596-.218.243-.664-.39-.143.193-.53.53.194-.143.39.664.243-.218.596.052.113 1.711.851a.516.516 0 00-.298.507c.094 1.18 1 1.69 1.933 1.708z" fill="#AAD8AE"/><path d="M25.517 4.03l-.438-.576-.577.438.323.425-.723.55.494.65-.02.153-1.552 1.309c.038.12.07.237.098.352 1.243 5.26-8.826 5.21-8.111-.529.055-.44.381-.798.813-.9 0 0-2.171-1.666-3.099-2.405l-.065-.276.688-1.114-1.24-.767.45-.729-.99-.611-.611.99.729.45-.767 1.24 1.114.689.066.276a318.25 318.25 0 01-1.694 3.538c.43-.102.883.072 1.13.44 3.277 4.917-6.172 9.564-7.087 3.745l-1.973-.475-.088-.129.151-.801-.892-.168.099-.525-.712-.134-.135.712.525.099-.169.892.802.151.795 1.163.024.037 3.298 4.959.03-.018c1.832-1.11 5.075-2.28 8.673-3.131 3.598-.85 7.022-1.256 9.159-1.084l.034.003.729-5.91.006-.044.19-1.396.648-.494-.55-.723.425-.322zM6.497 16.436a.335.335 0 11-.153-.652.335.335 0 01.154.652zm.97-.453a.38.38 0 11-.174-.74.38.38 0 01.174.74zm1.173-.568a.424.424 0 11-.195-.826.424.424 0 01.195.826zm1.253-.537a.514.514 0 11-.236-1 .514.514 0 01.236 1zm1.317-.624a.558.558 0 11-.257-1.085.558.558 0 01.257 1.085zm1.443-.573a.602.602 0 11-.278-1.173.602.602 0 01.278 1.173zm2.096-.22c-.599-1.613-.806-1.74-2.515-1.554 1.612-.599 1.74-.805 1.553-2.515.599 1.612.806 1.74 2.516 1.553-1.613.599-1.74.806-1.554 2.516zm1.973-.742a.602.602 0 11-.277-1.172.602.602 0 01.277 1.172zm1.547-.133a.558.558 0 11-.256-1.086.558.558 0 01.256 1.085zm1.457-.032a.514.514 0 11-.236-1 .514.514 0 01.236 1zm1.361-.08a.424.424 0 11-.196-.826.424.424 0 01.196.825zm1.303-.018a.38.38 0 11-.174-.739.38.38 0 01.174.739zm1.07-.028a.335.335 0 11-.154-.653.335.335 0 01.153.653z" fill="#AAD8AE"/><path d="M23.96 15.433c-.737-.041-1.521-.418-2.44-.367l-.08.004c-1.786.105-3.88.396-6.166.926a30.51 30.51 0 00-1.69.443h-.003a30.855 30.855 0 00-4.54 1.724l-.006.003c-.515.244-.99.485-1.423.718L6.56 17.77a38.787 38.787 0 012.706-1.23l.006-.003a39.416 39.416 0 014.483-1.53l.004-.002a39.462 39.462 0 0110.34-1.417c0 .027-.002.052-.004.077l-.033.533c-.016.272-.083.909-.103 1.235z" fill="#AAD8AE"/></svg>