<svg width="24" height="24" fill="none" xmlns="http://www.w3.org/2000/svg"><g clip-path="url(#clip0_1105_5)"><path d="M7.118 2.482c-.322-.047-.336-.052-.183-.072.291-.042.977.014 1.45.118 1.104.243 2.108.867 3.181 1.976l.285.294.408-.06c1.718-.256 3.463-.053 4.925.572.403.173 1.037.516 1.114.604.028.028.074.208.103.401.11.669.057 1.18-.164 1.562-.12.208-.127.273-.046.453a.45.45 0 00.173.18c.074.043.16.066.248.066.364 0 .755-.544.935-1.302l.072-.303.142.15c.783.823 1.397 1.943 1.502 2.74l.027.208-.13-.189a2.42 2.42 0 00-.746-.725c-.525-.321-1.08-.432-2.548-.504-1.326-.064-2.077-.17-2.821-.395-1.267-.384-1.905-.893-3.41-2.723-.668-.815-1.08-1.264-1.491-1.626-.935-.824-1.852-1.256-3.026-1.424v-.001z" fill="#fff"/><path d="M18.6 4.298c.032-.544.111-.904.272-1.232a1.34 1.34 0 01.132-.237c.009 0-.019.096-.061.213-.117.32-.138.755-.055 1.262.103.643.16.736.891 1.43.345.327.744.736.89.914l.264.32-.264-.229c-.322-.28-1.063-.827-1.227-.905-.11-.052-.127-.052-.194.01-.064.058-.076.145-.086.554-.012.639-.106 1.048-.332 1.456-.122.224-.141.176-.031-.075.082-.185.09-.269.09-.886 0-1.24-.16-1.54-1.091-2.048-.281-.151-.57-.29-.864-.416a3.384 3.384 0 01-.422-.192c.026-.024.934.222 1.3.352.544.195.633.22.7.197.043-.016.066-.136.086-.488h.002zM7.743 6.42c-.653-.835-1.06-2.117-.97-3.075l.026-.296.149.024c.281.048.763.214.989.342.619.349.888.808 1.16 1.989.081.345.186.736.234.87.077.213.372.71.61 1.034.171.233.058.344-.322.312-.581-.048-1.368-.552-1.876-1.2zm10.061 6.22c-3.058-1.142-4.134-2.134-4.134-3.806 0-.246.008-.448.02-.448.01 0 .129.08.262.181.621.46 1.315.658 3.239.918 1.131.154 1.765.277 2.353.458 1.869.574 3.023 1.74 3.299 3.328.079.46.034 1.325-.098 1.78-.103.36-.415 1.009-.497 1.035-.024.008-.047-.074-.052-.186-.03-.595-.356-1.176-.901-1.611-.62-.495-1.454-.89-3.49-1.65zm-2.146.474a4.731 4.731 0 00-.147-.6l-.08-.216.147.152c.2.208.36.476.493.832.103.272.113.352.113.794 0 .434-.013.525-.11.768-.131.36-.352.687-.644.954-.559.527-1.277.819-2.314.94a25.5 25.5 0 01-1.166.079c-1.164.056-1.93.172-2.618.396a.59.59 0 01-.197.044c-.027-.026.443-.285.828-.458.545-.245 1.089-.378 2.306-.565.6-.093 1.222-.206 1.38-.25 1.488-.423 2.254-1.516 2.01-2.87z" fill="#9A9A9A"/><path d="M17.06 15.425c-.405-.81-.5-1.591-.277-2.321.024-.08.062-.143.086-.143.022 0 .12.048.212.108.189.116.563.313 1.564.819 1.248.632 1.96 1.12 2.444 1.68.424.488.686 1.046.813 1.725.072.384.029 1.312-.077 1.699-.336 1.222-1.114 2.182-2.229 2.742a2.757 2.757 0 01-.326.15c-.015 0 .045-.14.133-.311.375-.727.418-1.432.135-2.218-.175-.482-.528-1.069-1.241-2.062-.83-1.152-1.032-1.461-1.236-1.867zM5.573 19.799c1.136-.89 2.547-1.52 3.834-1.715a6.442 6.442 0 011.99.072c.824.195 1.56.634 1.943 1.154.374.51.535.953.703 1.942.065.389.137.78.158.869.125.512.37.921.672 1.126.48.327 1.31.348 2.124.053a1.12 1.12 0 01.265-.077c.03.027-.38.282-.668.416-.342.17-.724.256-1.111.25-.746 0-1.365-.352-1.882-1.069a8.254 8.254 0 01-.508-.94c-.545-1.154-.814-1.505-1.447-1.89-.552-.336-1.263-.396-1.798-.152-.703.32-.898 1.152-.394 1.68.235.227.543.376.878.425a.997.997 0 00.396-.029.954.954 0 00.347-.18.878.878 0 00.236-.298.822.822 0 00.082-.363c0-.347-.144-.544-.506-.698-.495-.206-1.025.036-1.024.466 0 .184.088.3.287.384.127.053.13.056.026.037-.453-.088-.56-.595-.196-.931.439-.404 1.344-.226 1.654.326.13.232.146.693.033.971-.257.624-.998.952-1.752.773-.514-.122-.722-.253-1.34-.843-1.076-1.027-1.492-1.227-3.042-1.451l-.298-.044.338-.264z" fill="#fff"/><path fill-rule="evenodd" clip-rule="evenodd" d="M.528 1.414c3.59 4.042 6.064 5.71 6.338 6.061.226.291.14.554-.247.759a2.478 2.478 0 01-.883.228c-.252 0-.34-.09-.34-.09-.145-.127-.227-.105-.976-1.338a211.77 211.77 0 00-1.934-2.762c-.055-.048-.053-.048 1.83 3.077.303.651.06.89.06.982 0 .189-.057.288-.308.55-.418.431-.605.917-.74 1.924-.151 1.128-.576 1.925-1.756 3.29-.689.798-.802.943-.977 1.267-.22.404-.28.632-.303 1.142a3.32 3.32 0 00.202 1.408c.154.454.319.752.735 1.35.36.517.566.901.566 1.052 0 .118.024.118.583.001 1.33-.278 2.412-.768 3.02-1.371.378-.373.465-.578.469-1.088.001-.333-.01-.403-.108-.595-.158-.312-.446-.573-1.08-.976-.834-.528-1.19-.952-1.286-1.536-.082-.48.012-.818.471-1.712.477-.928.595-1.323.676-2.256.051-.603.121-.842.308-1.034.196-.198.37-.265.854-.326.787-.1 1.286-.288 1.697-.64.165-.127.298-.286.39-.467.092-.18.14-.377.142-.576l.017-.336-.2-.215C7.024 6.407.044.8 0 .8c-.008 0 .228.277.528.614zm1.673 15.704a.558.558 0 00.066-.427.594.594 0 00-.263-.355c-.257-.16-.66-.083-.66.123 0 .064.038.11.124.15.144.07.154.146.04.305-.114.158-.104.297.027.393.21.152.509.069.666-.189zm6.242-7.52c-.368.104-.727.468-.84.848-.067.232-.027.64.074.765.164.203.322.256.752.255.84-.005 1.57-.34 1.656-.759.069-.342-.252-.816-.694-1.025-.3-.114-.63-.143-.948-.084zm.984.712c.129-.17.072-.355-.15-.48-.417-.238-1.053-.041-1.053.327 0 .184.33.384.634.384.202 0 .48-.112.57-.23z" fill="#fff"/></g><defs><clipPath id="clip0_1105_5"><path fill="#fff" d="M0 0h24v24H0z"/></clipPath></defs></svg>