<svg width="24" height="24" fill="none" xmlns="http://www.w3.org/2000/svg"><path d="M15.482 7.99H8.544a.538.538 0 00-.536.537v6.946c0 .294.241.536.536.536h6.938a.538.538 0 00.535-.536V8.527a.538.538 0 00-.535-.536zM7.474 0H.536A.538.538 0 000 .536v6.946c0 .295.241.536.536.536h6.938a.538.538 0 00.536-.536V.536A.54.54 0 007.474 0zm15.99 0h-6.938a.538.538 0 00-.536.536v6.946c0 .295.242.536.536.536h6.938A.538.538 0 0024 7.482V.536A.538.538 0 0023.464 0zM7.474 15.982H.536a.538.538 0 00-.536.536v6.945c0 .295.241.537.536.537h6.938a.538.538 0 00.536-.537v-6.945a.54.54 0 00-.536-.536zm15.99 0h-6.938a.538.538 0 00-.536.536v6.945c0 .295.242.537.536.537h6.938a.538.538 0 00.536-.537v-6.945a.538.538 0 00-.536-.536z" fill="#fff"/></svg>