<svg width="24" height="24" fill="none" xmlns="http://www.w3.org/2000/svg"><g clip-path="url(#clip0_1108_10)"><path d="M.072 6.204L.079.414l5.964 2.904 5.964 2.898-5.971 2.892-5.972 2.886.008-5.79z" fill="#fff"/><path d="M17.971 9.12l-5.964-2.904-.007 5.79-.007 5.79 5.964 2.904 5.964 2.898.007-5.79.015-5.79L17.97 9.12z" fill="#fff"/><path d="M12 12.006l-.007 5.79-5.964-2.898-5.965-2.904 5.972-2.886 5.971-2.892-.007 5.79z" fill="#AFAFAF"/><path d="M23.95 6.228l-.007 5.79-5.971-2.898-5.965-2.904 5.979-2.886L23.957.438l-.007 5.79zM.05 17.784l.014-5.79 5.965 2.904 5.964 2.898-5.971 2.892-5.979 2.886.007-5.79z" fill="#838383"/></g><defs><clipPath id="clip0_1108_10"><path fill="#fff" d="M0 0h24v24H0z"/></clipPath></defs></svg>