<svg width="24" height="18" fill="none" xmlns="http://www.w3.org/2000/svg"><path d="M23.613 12.711L18.423 1.72c-1.137-2.291-3.912-2.315-5.01.097l-5.447 11.43c-1.018 2.096.239 4.729 2.275 4.729h10.918c2.056 0 3.593-2.706 2.455-5.265z" fill="#CDCDCD"/><path d="M16.128 13.564l-.32-.682c-.299-.634-.957-1.999-.957-1.999l-4.392-9.31C9.322-.5 6.627-.67 5.49 1.938L.38 12.735c-1.057 2.267.2 5.216 2.495 5.24h18.244c-2.814.025-3.712-1.754-4.99-4.41z" fill="#fff"/><path d="M16.128 13.564l-.32-.682c-.3-.634-.958-1.999-.958-1.999L12.016 4.79l-4.072 8.482C6.926 15.368 8.184 18 10.22 18h10.897c-2.835-.024-3.713-1.78-4.99-4.436z" fill="url(#paint0_linear_1108_54)"/><defs><linearGradient id="paint0_linear_1108_54" x1="6.495" y1="9.418" x2="19.629" y2="13.393" gradientUnits="userSpaceOnUse"><stop stop-color="#D2D2D2" stop-opacity="0"/><stop offset="1" stop-color="#5A5A5A"/></linearGradient></defs></svg>