<svg width="18" height="24" fill="none" xmlns="http://www.w3.org/2000/svg"><path d="M5.516 18.842c.07-5.716 7.067-6.924 6.284-13.169-.226-1.798-1.225-3.929-3.252-5.634-.106-.09-.282-.015-.269.113.611 5.737-4.049 8.456-6.144 10.847C-2.512 16.301.903 23.1 7.79 24c.153.02.246-.141.136-.235-1.414-1.217-2.411-2.762-2.411-4.922z" fill="#F0F1F4"/><path d="M14.528 9.693c-.093-.069-.236-.025-.259.079-.167.741-.698 1.965-2.403 4.11-4.415 5.555-2.282 8.023-.354 9.88.425.439.213-.098 1.116-.642 1.214-.73 1.729-.822 2.879-1.71 1.312-1.142 2.376-2.94 2.48-4.76.224-3.956-2.456-6.218-3.46-6.957z" fill="#9E9E9E"/></svg>