<svg width="25" height="25" fill="none" xmlns="http://www.w3.org/2000/svg"><path fill-rule="evenodd" clip-rule="evenodd" d="M22.41.171a1.62 1.62 0 01.975-.151c.33.052.643.207.904.45.262.24.464.56.585.924.12.364.155.76.101 1.145l-2.82 20.03c-.274 1.932-2.085 3.04-3.6 2.078-1.265-.805-3.146-2.046-4.838-3.34-.846-.648-3.437-2.723-3.118-4.2.273-1.262 4.627-6.005 7.115-8.826.976-1.108.53-1.747-.622-.728-2.865 2.53-7.461 6.379-8.98 7.462-1.342.955-2.04 1.119-2.877.955-1.525-.297-2.939-.757-4.093-1.317-1.56-.757-1.484-3.268-.002-3.998L22.41.17z" fill="#fff"/></svg>