<svg width="30" height="25" fill="none" xmlns="http://www.w3.org/2000/svg"><path d="M30 2.941a12.052 12.052 0 01-3.528 1.015 6.297 6.297 0 002.696-3.5A12.21 12.21 0 0125.268 2c-1.133-1.265-2.725-2-4.532-2-3.37 0-6.123 2.824-6.123 6.309 0 .5.057.985.158 1.441-5.106-.265-9.652-2.78-12.677-6.588a6.364 6.364 0 00-.832 3.162c0 2.19 1.075 4.132 2.739 5.235-1.018 0-1.965-.294-2.796-.735v.044c0 3.059 2.122 5.617 4.933 6.19a5.906 5.906 0 01-2.768.104 6.292 6.292 0 002.181 3.136 6.04 6.04 0 003.555 1.246 12.027 12.027 0 01-7.643 2.706c-.488 0-.975-.03-1.463-.088A17.103 17.103 0 009.436 25c11.3 0 17.51-9.618 17.51-17.956 0-.28 0-.544-.015-.823 1.205-.883 2.237-2 3.069-3.28z" fill="#fff"/></svg>